#!OML:ASF H:\Terrain\Walking\May29\JustinRory\Justin.ASF
:FULLY-SPECIFIED
:DEGREES
721
root 7.43079 17.5963 -16.0569 -1.7055 -4.34317 -0.506748
lowerback 5.32452 0.155541 -1.75684
upperback -0.120725 0.17807 2.57407
thorax -3.12618 0.136155 3.63519
lowerneck -17.2033 -2.58715 -10.1214
upperneck 16.5466 -2.69674 8.8465
head 8.22302 -1.03537 4.33364
rclavicle 4.24592e-015 2.38542e-015
rhumerus -13.5908 26.8713 -86.0158
rradius 98.9705
rwrist -3.99737
rhand -15.2654 47.3333
rfingers 7.12502
rthumb 10.9088 17.6367
lclavicle 4.24592e-015 2.38542e-015
lhumerus -12.9674 -21.9456 87.2081
lradius 95.7634
lwrist 0.507551
lhand -19.1178 46.7974
lfingers 7.12502
lthumb 7.19145 76.6552
rfemur -2.90125 -3.23611 19.243
rtibia 19.1054
rfoot -11.8989 -10.7667
rtoes 0.745514
lfemur -1.21579 0.126176 -15.6541
ltibia 18.8305
lfoot -13.9344 6.91184
ltoes -11.6102
722
root 7.43306 17.5983 -16.0521 -1.6896 -4.22868 -0.48556
lowerback 5.30139 0.1505 -1.72947
upperback -0.190364 0.172718 2.53028
thorax -3.18448 0.134461 3.57478
lowerneck -14.6405 -3.1433 -8.6565
upperneck 13.7197 -3.41658 6.1349
head 6.85133 -1.57535 3.05595
rclavicle 7.39075e-015 1.19271e-014
rhumerus -12.6786 26.423 -84.7488
rradius 99.1434
rwrist -2.90112
rhand -14.8999 47.1183
rfingers 7.12502
rthumb 11.2613 17.4406
lclavicle 7.39075e-015 1.19271e-014
lhumerus -12.148 -21.5528 86.2014
lradius 95.619
lwrist -0.47158
lhand -18.8978 46.5848
lfingers 7.12502
lthumb 7.40379 76.4352
rfemur -2.84562 -3.28137 19.1765
rtibia 19.0159
rfoot -11.9643 -10.7417
rtoes 2.17145
lfemur -1.21669 0.00906225 -15.6979
ltibia 18.8088
lfoot -13.9218 6.93775
ltoes -11.5349
723
root 7.43376 17.5975 -16.0511 -1.59929 -4.15323 -0.708064
lowerback 5.28794 0.0786634 -1.49731
upperback -0.310545 0.0963129 2.629
thorax -3.29524 0.0963163 3.55286
lowerneck -14.1724 -3.10502 -8.95232
upperneck 13.6661 -3.38883 6.42565
head 6.76168 -1.56034 3.20555
rclavicle 6.13437e-015 -2.38542e-015
rhumerus -11.6292 26.2116 -83.4709
rradius 99.2513
rwrist -1.54754
rhand -14.4493 46.7634
rfingers 7.12502
rthumb 11.6958 17.1099
lclavicle 6.13437e-015 -2.38542e-015
lhumerus -11.2879 -20.8691 85.1205
lradius 95.5752
lwrist -1.71218
lhand -18.2213 46.1397
lfingers 7.12502
lthumb 8.05673 75.9662
rfemur -2.86198 -3.39864 19.4277
rtibia 18.9031
rfoot -11.8759 -10.7637
rtoes 2.02791
lfemur -1.34892 0.0352374 -15.4452
ltibia 18.8656
lfoot -13.9634 6.88224
ltoes -11.2429
724
root 7.43309 17.5958 -16.0481 -1.58845 -4.12255 -0.762458
lowerback 5.25105 0.0454793 -1.44323
upperback -0.324224 0.0568795 2.6653
thorax -3.28575 0.0760574 3.56308
lowerneck -13.8208 -3.08998 -9.11048
upperneck 13.4838 -3.38564 6.58127
head 6.64793 -1.55878 3.28357
rclavicle 2.01726e-015 0
rhumerus -10.3195 25.9734 -82.1057
rradius 99.2036
rwrist -0.251662
rhand -14.0183 46.6477
rfingers 7.12502
rthumb 12.1114 17.0183
lclavicle 2.01726e-015 0
lhumerus -10.2297 -19.9907 84.14
lradius 95.3253
lwrist -3.31563
lhand -17.4855 45.9595
lfingers 7.12502
lthumb 8.76682 75.7575
rfemur -2.77046 -3.49329 19.4911
rtibia 18.7304
rfoot -11.6826 -10.7601
rtoes 0.924574
lfemur -1.45509 0.147485 -15.3765
ltibia 19.0298
lfoot -13.9975 6.81287
ltoes -11.4783
725
root 7.43274 17.5965 -16.0446 -1.55698 -4.08688 -0.90601
lowerback 5.1392 0.0186027 -1.28218
upperback -0.280045 0.0315009 2.70104
thorax -3.17512 0.0589351 3.51005
lowerneck -13.881 -3.07606 -8.98189
upperneck 13.5448 -3.35917 6.39304
head 6.67027 -1.55439 3.20354
rclavicle -6.67792e-016 8.74653e-015
rhumerus -8.8212 25.6856 -80.6292
rradius 99.1372
rwrist 0.625757
rhand -13.6324 46.4894
rfingers 7.12502
rthumb 12.4835 16.8823
lclavicle -6.67792e-016 8.74653e-015
lhumerus -8.82816 -19.8185 82.6651
lradius 95.2951
lwrist -4.24677
lhand -17.0631 46.8233
lfingers 7.12502
lthumb 9.1745 76.6038
rfemur -2.69516 -3.46165 19.6541
rtibia 18.5813
rfoot -11.5959 -10.8223
rtoes 0.566606
lfemur -1.56052 0.178615 -15.2216
ltibia 19.1816
lfoot -14.0109 6.75697
ltoes -12.1595
726
root 7.43546 17.5985 -16.0371 -1.51723 -3.94535 -1.12575
lowerback 4.97093 -0.0016329 -0.999337
upperback -0.253291 0.0212608 2.71842
thorax -3.05183 0.0475055 3.36755
lowerneck -14.2648 -3.1153 -9.06126
upperneck 14.169 -3.41798 6.58686
head 6.94659 -1.56842 3.27744
rclavicle -6.8208e-015 1.90833e-014
rhumerus -7.43105 25.221 -79.1865
rradius 99.2025
rwrist 1.46039
rhand -13.2086 46.1542
rfingers 7.12502
rthumb 12.8921 16.5724
lclavicle -6.8208e-015 1.90833e-014
lhumerus -7.63141 -19.4651 81.388
lradius 95.3198
lwrist -5.03472
lhand -16.4212 46.8467
lfingers 7.12502
lthumb 9.79378 76.5989
rfemur -2.65744 -3.55237 19.8662
rtibia 18.5321
rfoot -11.6597 -10.8173
rtoes 1.30261
lfemur -1.60553 0.0851493 -15.0001
ltibia 19.2432
lfoot -14.0319 6.69712
ltoes -12.2047
727
root 7.43916 17.6008 -16.0298 -1.51315 -3.688 -1.0245
lowerback 4.35015 -0.000755001 -1.59414
upperback 0.055443 -0.00664681 3.08828
thorax -2.38333 0.0315527 4.08562
lowerneck -14.7292 -3.23753 -9.90735
upperneck 14.6695 -3.45026 7.02034
head 7.2153 -1.5885 3.5598
rclavicle 4.08751e-015 4.77083e-015
rhumerus -5.50284 24.9558 -76.8491
rradius 99.3515
rwrist 2.12002
rhand -12.7285 45.6563
rfingers 7.12502
rthumb 13.3549 16.1043
lclavicle 4.08751e-015 4.77083e-015
lhumerus -5.96655 -18.8554 80.6548
lradius 95.3053
lwrist -5.74179
lhand -15.6061 46.5341
lfingers 7.12502
lthumb 10.5801 76.2478
rfemur -2.60836 -3.79664 19.7038
rtibia 18.5175
rfoot -11.7402 -10.7367
rtoes 1.70359
lfemur -1.64496 -0.0634422 -15.1363
ltibia 19.2804
lfoot -14.1134 6.66334
ltoes -12.0726
728
root 7.43654 17.6004 -16.0299 -1.49988 -3.54997 -0.872513
lowerback 3.89144 -0.0198482 -2.19103
upperback 0.270189 -0.0559554 3.3843
thorax -1.90007 0.00271267 4.73289
lowerneck -14.4706 -3.30487 -10.3955
upperneck 14.4775 -3.45349 7.0268
head 7.11829 -1.61959 3.64099
rclavicle 1.19644e-014 -1.59028e-014
rhumerus -3.61121 24.8086 -74.78
rradius 99.3535
rwrist 2.84646
rhand -12.2679 45.0337
rfingers 7.12502
rthumb 13.7988 15.5114
lclavicle 1.19644e-014 -1.59028e-014
lhumerus -4.48686 -18.1375 79.9136
lradius 95.228
lwrist -6.417
lhand -14.8282 46.0461
lfingers 7.12502
lthumb 11.3304 75.72
rfemur -2.58093 -3.75887 19.5647
rtibia 18.4792
rfoot -11.8177 -10.8688
rtoes 1.67111
lfemur -1.74563 -0.0666143 -15.2941
ltibia 19.3257
lfoot -14.1253 6.62919
ltoes -12.8596
729
root 7.42958 17.5989 -16.0317 -1.49796 -3.55854 -0.916586
lowerback 3.85798 -0.0317085 -2.27125
upperback 0.231486 -0.0730959 3.45342
thorax -1.9194 -0.00389715 4.85195
lowerneck -14.7876 -3.33353 -11.3688
upperneck 15.0966 -3.42398 7.90878
head 7.4047 -1.58352 4.10798
rclavicle 2.34814e-015 -1.51076e-014
rhumerus -2.1653 24.5377 -73.4404
rradius 99.2566
rwrist 3.67851
rhand -11.7862 44.5805
rfingers 7.12502
rthumb 14.263 15.0903
lclavicle 2.34814e-015 -1.51076e-014
lhumerus -3.48823 -17.4647 78.9502
lradius 95.118
lwrist -7.08979
lhand -14.4804 45.2926
lfingers 7.12502
lthumb 11.6659 74.9478
rfemur -2.57221 -3.49134 19.6853
rtibia 18.4487
rfoot -11.8691 -11.1635
rtoes 1.50927
lfemur -1.80102 0.0441822 -15.2052
ltibia 19.3564
lfoot -14.0701 6.5572
ltoes -13.4849
730
root 7.42461 17.6006 -16.0307 -1.48869 -3.61413 -1.18558
lowerback 4.15939 -0.0664315 -1.76673
upperback -0.053246 -0.0960142 3.28498
thorax -2.38063 -0.00850012 4.39396
lowerneck -16.9187 -3.71913 -14.0756
upperneck 17.7221 -3.64537 10.407
head 8.77927 -1.609 5.45864
rclavicle -2.41803e-015 -2.14687e-014
rhumerus -1.21986 24.207 -72.7661
rradius 99.2189
rwrist 4.47039
rhand -11.3045 44.2241
rfingers 7.12502
rthumb 14.7271 14.7672
lclavicle -2.41803e-015 -2.14687e-014
lhumerus -2.65906 -17.1255 77.6447
lradius 94.8899
lwrist -7.88056
lhand -14.412 45.0465
lfingers 7.12502
lthumb 11.7318 74.698
rfemur -2.56921 -3.22365 20.036
rtibia 18.4117
rfoot -11.8193 -11.4585
rtoes 1.06566
lfemur -1.82134 0.131775 -14.8626
ltibia 19.4112
lfoot -14.1123 6.45931
ltoes -13.101
731
root 7.41963 17.6039 -16.0277 -1.40081 -3.7081 -1.42177
lowerback 4.31063 -0.0619158 -1.3173
upperback -0.314808 -0.0663337 3.12436
thorax -2.73834 0.00839699 3.97233
lowerneck -18.7339 -4.46065 -17.9478
upperneck 19.7991 -4.05818 13.2049
head 10.0434 -1.7843 7.19365
rclavicle 8.64403e-015 -7.95139e-016
rhumerus -0.252681 23.9188 -71.976
rradius 99.2027
rwrist 5.2792
rhand -10.8855 43.9085
rfingers 7.12502
rthumb 15.1308 14.4816
lclavicle 8.64403e-015 -7.95139e-016
lhumerus -1.60957 -16.86 76.4915
lradius 94.5466
lwrist -8.98268
lhand -13.8411 45.2254
lfingers 7.12502
lthumb 12.2823 74.8447
rfemur -2.62473 -2.92189 20.3614
rtibia 18.3349
rfoot -11.6839 -11.7242
rtoes 1.02865
lfemur -1.93385 0.243379 -14.5646
ltibia 19.4974
lfoot -14.1591 6.42624
ltoes -12.7795
